<?xml version="1.0" encoding="UTF-8"?>
<svg id="_레이어_2" data-name="레이어 2" xmlns="http://www.w3.org/2000/svg" viewBox="0 0 287.04 67.58">
  <defs>
    <style>
      .cls-1 {
        stroke-width: 0px;
      }
    </style>
  </defs>
  <g id="Layer_1" data-name="Layer 1">
    <g>
      <path class="cls-1" d="M50.56,42.43l11.41,25.14h-19.35l-11.13-24.15h-13.05v23.33H0V.41h42.53c12.05,0,18.07,4.96,18.07,14.72v13.56c0,7.28-3.38,11.91-10.04,13.73ZM18.44,30.19h20.08c2.37,0,3.65-1.07,3.65-3.31v-9.93c0-2.15-1.28-3.31-3.65-3.31h-20.08v16.54Z"/>
      <path class="cls-1" d="M136.08,14.72v37.72c0,9.84-6.02,14.72-18.07,14.72h-24.46c-12.05,0-18.07-4.88-18.07-14.72V14.72c0-9.76,6.02-14.72,18.07-14.72h24.46c12.05,0,18.07,4.96,18.07,14.72ZM117.64,50.62V16.54c0-2.15-1.28-3.31-3.65-3.31h-16.43c-2.46,0-3.65,1.16-3.65,3.31v34.08c0,2.23,1.19,3.31,3.65,3.31h16.43c2.37,0,3.65-1.08,3.65-3.31Z"/>
      <path class="cls-1" d="M193.49,66.75h-42.53V.41h42.53c12.05,0,18.07,4.96,18.07,14.72v36.89c0,9.84-6.02,14.72-18.07,14.72ZM189.47,53.52c2.37,0,3.65-1.08,3.65-3.31V16.96c0-2.15-1.28-3.31-3.65-3.31h-20.08v39.87h20.08Z"/>
      <path class="cls-1" d="M226.44,52.44V.41h18.44v49.38c0,2.23,1.19,3.31,3.65,3.31h16.43c2.37,0,3.65-1.07,3.65-3.31V.41h18.44v52.03c0,9.84-6.02,14.72-18.07,14.72h-24.46c-12.05,0-18.07-4.88-18.07-14.72Z"/>
    </g>
  </g>
</svg>